<svg xmlns="http://www.w3.org/2000/svg" width="16" height="16" viewBox="0 0 16 16" fill="none">
<path d="M13.9821 10.1088C13.8422 9.08841 13.6323 7.59182 13.4224 6.50338C13.3524 6.02719 13.2125 5.48297 13.0026 5.00678C12.4429 2.82991 10.3439 1.33331 8.03496 1.33331C5.6561 1.33331 3.5571 2.82991 2.99736 4.93876C2.85743 5.48297 2.7175 6.02719 2.57756 6.50338C2.36766 7.59182 2.15776 9.08841 2.01783 10.1088C1.8779 11.0612 2.57756 11.9456 3.5571 12.1496C4.25676 12.2857 5.16633 12.3537 6.0759 12.4898V12.7619C6.0759 13.7823 6.91549 14.6666 8.03496 14.6666C9.08446 14.6666 9.99403 13.8503 9.99403 12.7619V12.4898C10.9036 12.4217 11.7432 12.2857 12.5128 12.1496C13.4224 11.9456 14.1221 11.0612 13.9821 10.1088ZM8.87456 12.7619C8.87456 13.2381 8.45476 13.5782 8.03496 13.5782C7.61516 13.5782 7.12539 13.17 7.12539 12.7619V12.5578C7.40526 12.5578 7.75509 12.5578 8.03496 12.5578C8.31483 12.5578 8.59469 12.5578 8.87456 12.5578V12.7619Z" fill="white"/>
</svg>