<svg width="24" height="24" viewBox="0 0 24 24" fill="none" xmlns="http://www.w3.org/2000/svg">
<path d="M2 15L5.23309 17.4248C5.66178 17.7463 6.26772 17.6728 6.60705 17.2581L15 7" stroke-linecap="round" stroke-width="2"/>
<path fill-rule="evenodd" clip-rule="evenodd" d="M23.3868 7.31663C23.5616 7.10291 23.5301 6.7879 23.3164 6.61304C23.1027 6.43817 22.7877 6.46967 22.6128 6.6834L14.2391 16.9179C14.0656 17.13 13.7537 17.1629 13.5398 16.9917L11.8121 15.6096C11.5965 15.4371 11.2818 15.472 11.1093 15.6877C10.9368 15.9033 10.9718 16.2179 11.1874 16.3904L12.9151 17.7726C13.557 18.2861 14.4926 18.1873 15.0131 17.5511L23.3868 7.31663Z" />
</svg>
