<svg xmlns="http://www.w3.org/2000/svg" width="16" height="16" viewBox="0 0 16 16" fill="none">
<path d="M14.6668 4.41484V11.4967C14.6668 12.2386 14.1906 12.9805 13.4423 13.2503L10.041 14.5318C9.8369 14.5993 9.63282 14.6667 9.36071 14.6667C9.02057 14.6667 8.61241 14.5318 8.27227 14.3295C8.13622 14.1946 7.93214 14.0597 7.86411 13.9248H5.27907C4.25867 13.9248 3.37431 13.1154 3.37431 12.0363V11.3618C3.37431 11.092 3.57839 10.8223 3.91853 10.8223C4.25867 10.8223 4.46275 11.0246 4.46275 11.3618V12.0363C4.46275 12.5084 4.87091 12.8457 5.27907 12.8457H7.52397V3.13335H5.27907C4.80288 3.13335 4.46275 3.47059 4.46275 3.94271V4.61718C4.46275 4.88696 4.25867 5.15675 3.91853 5.15675C3.57839 5.15675 3.37431 4.88696 3.37431 4.61718V3.94271C3.37431 2.93101 4.19064 2.05421 5.27907 2.05421H7.86411C8.00016 1.91932 8.13622 1.78442 8.27227 1.64953C8.81649 1.3123 9.42873 1.24485 10.041 1.44719L13.4423 2.72867C14.1226 2.93101 14.6668 3.67292 14.6668 4.41484Z" fill="white"/>
<path d="M3.23826 9.87801C3.1022 9.87801 2.96615 9.81056 2.89812 9.74311L1.53758 8.39418C1.46955 8.32674 1.46955 8.25929 1.40152 8.25929C1.40152 8.19184 1.3335 8.1244 1.3335 8.05695C1.3335 7.9895 1.3335 7.92206 1.40152 7.85461C1.40152 7.78716 1.46955 7.71972 1.53758 7.71972L2.89812 6.37079C3.1022 6.16845 3.44234 6.16845 3.64642 6.37079C3.8505 6.57313 3.8505 6.91036 3.64642 7.1127L3.17023 7.58482H5.95935C6.23146 7.58482 6.50356 7.78716 6.50356 8.12439C6.50356 8.46163 6.23146 8.52907 5.95935 8.52907H3.1022L3.57839 9.0012C3.78248 9.20354 3.78248 9.54077 3.57839 9.74311C3.51037 9.81056 3.37431 9.87801 3.23826 9.87801Z" fill="white"/>
</svg>