<svg width="24" height="24" viewBox="0 0 24 24" fill="none" xmlns="http://www.w3.org/2000/svg">
<path d="M11.9999 12.6923C12.3823 12.6923 12.6922 12.3824 12.6922 12C12.6922 11.6177 12.3823 11.3077 11.9999 11.3077C11.6176 11.3077 11.3076 11.6177 11.3076 12C11.3076 12.3824 11.6176 12.6923 11.9999 12.6923Z" fill="white" stroke="white" stroke-linecap="round" stroke-linejoin="round"/>
<path d="M7.84611 12.6923C8.22846 12.6923 8.53842 12.3824 8.53842 12C8.53842 11.6177 8.22846 11.3077 7.84611 11.3077C7.46376 11.3077 7.15381 11.6177 7.15381 12C7.15381 12.3824 7.46376 12.6923 7.84611 12.6923Z" fill="white" stroke="white" stroke-linecap="round" stroke-linejoin="round"/>
<path d="M16.1537 12.6923C16.5361 12.6923 16.846 12.3824 16.846 12C16.846 11.6177 16.5361 11.3077 16.1537 11.3077C15.7714 11.3077 15.4614 11.6177 15.4614 12C15.4614 12.3824 15.7714 12.6923 16.1537 12.6923Z" fill="white" stroke="white" stroke-linecap="round" stroke-linejoin="round"/>
</svg>
