<svg width="24" height="24" viewBox="0 0 24 24" fill="none" xmlns="http://www.w3.org/2000/svg">
<path d="M20 11.7026L12.0648 19.9757C11.7569 20.3 11.3896 20.5577 10.9842 20.7335C10.5789 20.9094 10.1438 21 9.70422 21C9.26466 21 8.8295 20.9094 8.42419 20.7335C8.01888 20.5577 7.65155 20.3 7.34366 19.9757L4.96976 17.48C4.34832 16.8274 4 15.9483 4 15.0325C4 14.1167 4.34832 13.2377 4.96976 12.5851L13.4251 3.81571C13.6731 3.55724 13.9681 3.35209 14.2931 3.21208C14.6181 3.07208 14.9668 3 15.3189 3C15.671 3 16.0196 3.07208 16.3447 3.21208C16.6697 3.35209 16.9647 3.55724 17.2127 3.81571L18.1596 4.79469C18.4096 5.05105 18.608 5.35605 18.7434 5.6921C18.8788 6.02814 18.9485 6.38859 18.9485 6.75263C18.9485 7.11668 18.8788 7.47712 18.7434 7.81317C18.608 8.14921 18.4096 8.45422 18.1596 8.71058L10.6644 16.4872C10.5405 16.6164 10.393 16.719 10.2304 16.789C10.0679 16.859 9.89361 16.8951 9.71756 16.8951C9.5415 16.8951 9.36718 16.859 9.20466 16.789C9.04215 16.719 8.89464 16.6164 8.77066 16.4872L8.30389 15.9908C8.17889 15.8626 8.07967 15.7101 8.01196 15.5421C7.94425 15.3741 7.9094 15.1939 7.9094 15.0119C7.9094 14.8298 7.94425 14.6496 8.01196 14.4816C8.07967 14.3136 8.17889 14.1611 8.30389 14.0329L13.3317 8.87604" stroke="#8287A0" stroke-linecap="round" stroke-linejoin="round"/>
</svg>
