<svg xmlns="http://www.w3.org/2000/svg" width="16" height="16" viewBox="0 0 16 16" fill="none">
<path d="M13.1702 2.76188C12.2859 1.87753 11.0614 1.33331 9.76887 1.33331C8.47635 1.33331 7.25186 1.8095 6.36751 2.76188C5.14302 3.98637 4.66683 5.75508 5.07499 7.38773C5.14302 7.65984 5.07499 7.72787 5.07499 7.72787L1.46955 11.3333C1.40152 11.4013 1.3335 11.5374 1.3335 11.6734V14.1224C1.3335 14.3945 1.53758 14.6666 1.87771 14.6666H4.32669C4.46275 14.6666 4.5988 14.5986 4.66683 14.5306L8.27227 10.9251C8.3403 10.8571 8.47635 10.7891 8.61241 10.8571C10.3131 11.3333 12.0818 10.7891 13.2383 9.5646C14.1226 8.68025 14.6668 7.52379 14.6668 6.2993V6.16324C14.5988 4.93876 14.0546 3.64624 13.1702 2.76188ZM9.97295 6.63944C9.63282 6.63944 9.29268 6.2993 9.29268 5.95916C9.29268 5.61903 9.63282 5.27889 9.97295 5.27889C10.3131 5.27889 10.6532 5.61903 10.6532 5.95916C10.6532 6.2993 10.3131 6.63944 9.97295 6.63944Z" fill="white"/>
</svg>