<svg xmlns="http://www.w3.org/2000/svg" width="16" height="16" viewBox="0 0 16 16" fill="none">
<path d="M12.6716 3.3472C11.5037 2.0972 9.7862 1.33331 8 1.33331C6.2138 1.33331 4.4963 2.02776 3.32839 3.3472C2.36659 4.45831 1.88569 5.8472 2.02309 7.23609C2.02309 7.51387 2.09179 7.79165 2.16049 7.99998C2.77879 10.9166 5.939 13.4861 7.313 14.4583C7.5191 14.5972 7.7252 14.6666 8 14.6666C8.2748 14.6666 8.4809 14.5972 8.687 14.4583C9.9923 13.4861 13.2212 10.9166 13.8395 7.99998C13.9082 7.79165 13.9082 7.51387 13.9769 7.23609C14.1143 5.8472 13.6334 4.45831 12.6716 3.3472ZM8 9.31942C6.9695 9.31942 6.0764 8.48609 6.0764 7.37498C6.0764 6.26387 6.9008 5.43053 8 5.43053C9.0992 5.43053 9.9236 6.26387 9.9236 7.37498C9.9236 8.48609 9.0305 9.31942 8 9.31942Z" fill="white"/>
</svg>