<svg xmlns="http://www.w3.org/2000/svg" width="16" height="16" viewBox="0 0 16 16" fill="none">
<path d="M14.6668 5.7235V11.382C14.6668 12.2926 13.9157 13.0731 12.9597 13.1381C11.5258 13.2682 9.54559 13.3333 8.04337 13.3333C6.54114 13.3333 4.56094 13.2032 3.127 13.1381C2.17103 13.0731 1.41992 12.2926 1.41992 11.382V5.7235L2.44417 6.24383L7.15569 8.71537C7.42882 8.84546 7.77024 8.9105 8.04337 8.9105C8.3165 8.9105 8.65791 8.84546 8.93104 8.71537L13.6426 6.24383L14.6668 5.7235Z" fill="white"/>
<path d="M14.5985 4.29264C14.5985 4.42272 14.5303 4.61785 14.3937 4.68289L13.5743 5.07313L8.3848 7.80484C8.11167 7.93492 7.83854 7.93492 7.5654 7.80484L1.55651 4.68289C1.41994 4.61785 1.28338 4.48776 1.35166 4.35768C1.48822 3.5772 2.17105 2.92679 3.05873 2.86175C4.49267 2.73167 6.47288 2.66663 7.9751 2.66663C9.47733 2.66663 11.5258 2.79671 12.8915 2.86175C13.7792 2.92679 14.462 3.51215 14.5985 4.29264Z" fill="white"/>
</svg>