<svg xmlns="http://www.w3.org/2000/svg" width="40" height="40" viewBox="0 0 40 40" fill="none">
<path d="M15.7343 16.4689L17.5879 20.176C17.9537 20.9075 18.1366 21.2733 18.1366 21.6667C18.1366 22.0602 17.9537 22.4259 17.5879 23.1574L15.7343 26.8646C13.8855 30.5623 12.9611 32.4112 13.8105 33.2606C14.6599 34.11 16.5088 33.1856 20.2065 31.3367L33.5836 24.6482C36.1855 23.3472 37.4864 22.6968 37.4864 21.6667C37.4864 20.6367 36.1855 19.9862 33.5836 18.6853L20.2065 11.9967C16.5088 10.1479 14.6599 9.22344 13.8105 10.0729C12.9611 10.9223 13.8855 12.7712 15.7343 16.4689Z" fill="#2B6CB0"/>
</svg>