<svg width="24" height="24" viewBox="0 0 24 24" fill="none" xmlns="http://www.w3.org/2000/svg">
<path d="M7.15838 13.9306C6.44537 12.7423 6.44537 11.2577 7.15838 10.0694C7.37596 9.70674 7.73641 9.45272 8.1511 9.36978L9.84413 9.03117C9.94499 9.011 10.0359 8.95691 10.1018 8.87788L12.1708 6.39498C13.3534 4.97592 13.9447 4.26638 14.4723 4.45742C15 4.64846 15 5.57207 15 7.41928L15 16.5807C15 18.4279 15 19.3515 14.4723 19.5426C13.9447 19.7336 13.3534 19.0241 12.1708 17.605L10.1018 15.1221C10.0359 15.0431 9.94499 14.989 9.84413 14.9688L8.1511 14.6302C7.73641 14.5473 7.37596 14.2933 7.15838 13.9306Z" fill="#BDBDBD"/>
<path d="M5 18L19 7" stroke="white" stroke-width="2" stroke-linecap="round"/>
<path d="M6 19L20 8" stroke="#BDBDBD" stroke-width="2" stroke-linecap="round"/>
</svg>
