<svg xmlns="http://www.w3.org/2000/svg" width="16" height="16" viewBox="0 0 16 16" fill="none">
<path d="M7.96312 2.05418C7.55304 1.91608 7.07462 2.05418 6.73288 2.33038L4.61414 4.47096C4.13571 5.02337 3.45224 5.29957 2.70043 5.29957C1.94862 5.29957 1.3335 5.85198 1.3335 6.61154V9.37358C1.3335 10.1331 1.94862 10.6856 2.63208 10.6856C3.31555 10.6856 4.06736 10.9618 4.54579 11.5142L6.66454 13.6547C6.86958 13.8619 7.21131 14 7.4847 14C7.62139 14 7.75808 14 7.82643 13.9309C8.23651 13.7928 8.57824 13.4476 8.64659 12.9642C8.85163 11.5832 9.12502 9.58074 9.12502 7.92351C9.12502 6.26629 8.98832 4.40191 8.71494 2.95184C8.64659 2.53753 8.3732 2.19228 7.96312 2.05418Z" fill="white"/>
<path d="M13.2258 2.88276C13.0891 2.67561 12.7474 2.60656 12.5424 2.74466C12.3373 2.88276 12.269 3.22801 12.4057 3.43517C13.2258 4.67809 13.7043 6.26626 13.7043 7.99253C13.7043 9.71881 13.2258 11.307 12.4057 12.5499C12.269 12.7571 12.3373 13.1023 12.5424 13.2404C12.6107 13.3095 12.7474 13.3095 12.8158 13.3095C12.9524 13.3095 13.1575 13.2404 13.2258 13.1023C14.1827 11.7213 14.6611 9.92596 14.6611 7.99253C14.7295 6.05911 14.1827 4.26378 13.2258 2.88276Z" fill="white"/>
<path d="M10.5602 4.05668C10.2869 4.19478 10.2185 4.47099 10.2869 4.74719C10.6969 5.5758 10.902 6.74967 10.902 7.99259C10.902 9.23551 10.6969 10.3403 10.2869 11.238C10.1502 11.5142 10.2869 11.7904 10.5602 11.9285C10.6286 11.9975 10.6969 11.9975 10.7653 11.9975C10.9703 11.9975 11.107 11.8594 11.2437 11.7213C11.7221 10.7546 11.9955 9.44266 11.9955 8.06164C11.9955 6.68062 11.7221 5.36865 11.2437 4.40194C11.107 4.05668 10.8336 3.91858 10.5602 4.05668Z" fill="white"/>
</svg>