<svg width="1154" height="866" viewBox="0 0 1154 866" fill="none" xmlns="http://www.w3.org/2000/svg">
<rect x="-158" width="1440" height="1024" rx="20" fill="#F5F7FB"/>
<path d="M91.6868 175.686L118.455 182.859L98.8594 202.455L91.6868 175.686Z" fill="#EDEEF5"/>
<path d="M524.851 213.534L526.463 233.387L508.464 224.857L524.851 213.534Z" fill="#EDEEF5"/>
<path d="M356.109 815.703L380.052 820.097L364.274 838.635L356.109 815.703Z" fill="#EDEEF5"/>
<path d="M612.137 598.186L624.475 630.593L590.241 625.074L612.137 598.186Z" fill="#EDEEF5"/>
<path d="M887.176 134.262L864.676 168.699L846.102 131.995L887.176 134.262Z" fill="#EDEEF5"/>
<path d="M457.057 846.821L497.864 845.375L478.713 881.438L457.057 846.821Z" fill="#EDEEF5"/>
<path d="M775.709 287.486L800.31 300.7L776.566 315.398L775.709 287.486Z" fill="#EDEEF5"/>
<path d="M959.904 391.041L916.484 403.323L927.558 359.58L959.904 391.041Z" fill="#EDEEF5"/>
<path d="M284.865 644.888L275.19 672.698L255.944 650.414L284.865 644.888Z" fill="#EDEEF5"/>
<path d="M228.204 86.6299L235.042 121.09L201.779 109.782L228.204 86.6299Z" fill="#EDEEF5"/>
<path d="M397.632 57.1044L366.957 58.4305L381.146 31.2022L397.632 57.1044Z" fill="#EDEEF5"/>
<path d="M236.368 492.368L255.608 497.524L241.523 511.608L236.368 492.368Z" fill="#EDEEF5"/>
<path d="M145.601 398.913L178.946 418.864L144.995 437.765L145.601 398.913Z" fill="#EDEEF5"/>
<path d="M638.249 362.777L672.522 367.487L651.306 394.813L638.249 362.777Z" fill="#EDEEF5"/>
<path d="M1091.6 629.814L1108.76 665.835L1068.98 662.693L1091.6 629.814Z" fill="#EDEEF5"/>
<circle cx="217.657" cy="291.657" r="10.6574" fill="#EDEEF5"/>
<circle cx="406.657" cy="370.657" r="7.65738" fill="#EDEEF5"/>
<circle cx="10.5" cy="298.5" r="6.5" fill="#EDEEF5"/>
<circle cx="932.5" cy="712.5" r="8.5" fill="#EDEEF5"/>
<circle cx="1031" cy="103" r="12" fill="#EDEEF5"/>
<circle cx="756.5" cy="687.5" r="5.5" fill="#EDEEF5"/>
<circle cx="1082.5" cy="454.5" r="5.5" fill="#EDEEF5"/>
<circle cx="180.5" cy="605.5" r="5.5" fill="#EDEEF5"/>
<circle cx="91.5" cy="753.5" r="7.5" fill="#EDEEF5"/>
<circle cx="635" cy="132" r="9" fill="#EDEEF5"/>
<circle cx="948" cy="568" r="6" fill="#EDEEF5"/>
<path fill-rule="evenodd" clip-rule="evenodd" d="M438.178 646.354L455.493 662.612L449.397 669.105L432.082 652.848L438.178 646.354ZM397.096 642.397L414.411 658.655L431.685 640.258L438.178 646.354L414.808 671.245L408.315 665.148L391 648.89L397.096 642.397Z" fill="#EDEEF5"/>
<path fill-rule="evenodd" clip-rule="evenodd" d="M1107.44 898.339L1095.59 918.922L1087.87 914.477L1099.72 893.894L1107.44 898.339ZM1101.87 857.445L1090.02 878.027L1111.88 890.621L1107.44 898.339L1077.85 881.301L1082.3 873.583L1094.15 853L1101.87 857.445Z" fill="#EDEEF5"/>
<path fill-rule="evenodd" clip-rule="evenodd" d="M501.876 436.64L490 416.071L497.714 411.618L509.59 432.187L501.876 436.64ZM540.06 452.305L528.184 431.736L506.329 444.354L501.876 436.64L531.444 419.569L535.898 427.283L547.773 447.852L540.06 452.305Z" fill="#EDEEF5"/>
<path fill-rule="evenodd" clip-rule="evenodd" d="M13.6402 640.897L-6.92906 652.773L-11.3824 645.059L9.1868 633.184L13.6402 640.897ZM29.305 602.713L8.73575 614.589L21.3536 636.444L13.6402 640.897L-3.43107 611.329L4.28239 606.876L24.8516 595L29.305 602.713Z" fill="#EDEEF5"/>
</svg>
